<svg width="582" height="154" xmlns="http://www.w3.org/2000/svg">
 <!-- Created with Method Draw - http://github.com/duopixel/Method-Draw/ -->

 <g>
  <title>background</title>
  <rect fill="none" id="canvas_background" height="156" width="584" y="-1" x="-1"/>
  <g display="none" overflow="visible" y="0" x="0" height="100%" width="100%" id="canvasGrid">
   <rect fill="url(#gridpattern)" stroke-width="0" y="1" x="1" height="400" width="580"/>
  </g>
 </g>
 <g>
  <title>Layer 1</title>
  <defs>
   <clipPath clipPathUnits="userSpaceOnUse" id="svg_27">
    <rect id="svg_48" height="29700" width="21000" y="9961375.558594" x="14428190.558594"/>
   </clipPath>
   <clipPath clipPathUnits="userSpaceOnUse" id="svg_46">
    <rect id="svg_49" height="29641" width="20958" y="29" x="21"/>
   </clipPath>
  </defs>
  <g stroke="null" id="svg_162">
   <g stroke="null" transform="matrix(0.04750641473332815,0,0,0.04750641473332815,-18315.407257776784,-12421.525136549146) " id="svg_142">
    <g stroke="null" class="Master_Slide" id="svg_114">
     <g stroke="null" class="Background" id="svg_116"/>
     <g stroke="null" class="BackgroundObjects" id="svg_115"/>
    </g>
   </g>
   <g stroke="null" transform="matrix(0.04750641473332815,0,0,0.04750641473332815,-18315.407257776784,-12421.525136549146) " id="svg_143" class="SlideGroup">
    <g stroke="null" id="svg_144">
     <g stroke="null" id="svg_106">
      <g stroke="null" clip-path="url(#svg_108)" class="Slide" id="svg_107">
       <g stroke="null" id="svg_145" class="Page">
        <g stroke="null" id="svg_146" class="com.sun.star.drawing.ClosedBezierShape">
         <g stroke="null" id="svg_113">
          <rect id="svg_147" height="1395" width="8805" y="262954.312597" x="388307.114882" fill="none" class="BoundingBox"/>
          <path id="svg_148" d="m388308.114882,263038.312597l0,-56c124,7 260,10 406,10l419,-8c142,0 256,21 341,62c85,41 151,107 197,197c48,89 71,194 71,313c0,221 -75,403 -224,546c-149,143 -350,215 -602,215c-14,0 -71,-2 -172,-5c-100,-3 -159,-5 -177,-5c-61,0 -147,4 -260,12l0,-56c102,-20 159,-31 170,-35c12,-4 20,-8 25,-13c5,-5 9,-12 11,-21c3,-13 5,-66 6,-160c3,-203 5,-352 5,-446l-5,-412l1,-31c0,-32 -9,-52 -27,-60c-10,-7 -72,-22 -185,-47zm0,0l0,0zm401,1167c102,13 187,19 256,19c108,0 196,-17 266,-51c100,-51 175,-126 227,-223c52,-98 78,-217 78,-360c0,-74 -9,-142 -26,-204c-17,-61 -40,-110 -69,-146c-42,-54 -97,-95 -165,-124c-68,-29 -166,-43 -294,-43c-77,0 -168,4 -273,13c-4,166 -6,353 -6,562c0,223 2,408 6,557zm0,0l0,0zm1867,-1223l0,56c-22,5 -38,8 -48,10c-83,14 -131,28 -144,41c-13,13 -20,41 -20,86l0,33l-5,379l3,551c0,43 7,71 20,83c12,12 56,23 131,31c15,2 36,6 63,11l0,56c-101,-7 -198,-10 -291,-10c-96,0 -202,3 -318,10l0,-56c18,-5 32,-8 41,-10c89,-14 139,-27 152,-40c13,-12 19,-43 19,-92l-2,-48l3,-345c0,-356 -1,-552 -3,-590c-1,-20 -8,-36 -20,-48c-12,-11 -59,-24 -142,-40c-11,-2 -28,-6 -50,-12l0,-56c137,7 243,10 320,10c85,0 183,-3 291,-10zm0,0l0,0zm170,56l0,-56c166,7 300,10 400,10c58,0 112,0 162,-1c66,-2 113,-3 138,-3c123,0 215,29 277,86c62,58 92,137 92,236c0,66 -13,124 -41,175c-28,51 -69,94 -121,129c-39,25 -93,48 -164,68l312,409c39,51 64,81 74,90c16,13 36,24 61,34c35,14 95,30 178,48l0,56c-99,-7 -171,-10 -217,-10c-52,0 -105,3 -160,10c-28,-47 -66,-107 -115,-178c-48,-71 -77,-113 -88,-127c-6,-7 -13,-15 -18,-23l-207,-285c-56,-1 -113,-5 -170,-12l8,475c1,18 7,33 17,42c15,13 63,26 142,41c12,2 29,5 53,11l0,56c-114,-7 -214,-10 -301,-10c-93,0 -197,3 -312,10l0,-56l40,-8c90,-17 140,-32 153,-43c12,-10 19,-30 21,-58c1,-18 3,-179 5,-484l-4,-443c-1,-67 -3,-106 -5,-116c-3,-10 -9,-18 -19,-23c-31,-16 -79,-30 -145,-40c-10,-2 -26,-5 -46,-10zm0,0l0,0zm393,576c66,7 116,10 152,10c115,0 200,-25 255,-76c55,-51 82,-121 82,-212c0,-79 -24,-141 -73,-187c-49,-46 -120,-68 -213,-68c-33,0 -99,4 -197,11l-6,522zm0,0l0,0zm1469,-42l230,0c89,0 141,-2 157,-7c16,-5 29,-14 39,-29c9,-15 21,-57 36,-126c2,-7 5,-18 9,-33l61,0c-6,104 -9,184 -9,240c0,59 3,138 9,239l-61,0c-19,-91 -30,-141 -34,-152c-7,-15 -18,-26 -34,-32c-15,-7 -62,-10 -140,-10l-261,0l5,555l396,0l35,-1c54,0 88,-3 102,-7c24,-8 45,-22 63,-41c19,-19 52,-73 101,-161c5,-9 13,-22 23,-39l65,0c-7,20 -46,137 -116,351c-229,-7 -437,-10 -627,-10c-132,0 -278,3 -437,10l0,-56l153,-33c24,-7 39,-14 45,-21c9,-12 14,-36 14,-74l0,-17l5,-221c1,-43 1,-126 1,-252c0,-181 -1,-314 -2,-398c-1,-85 -5,-133 -9,-144c-4,-7 -10,-13 -18,-18c-7,-5 -36,-13 -86,-24l-101,-23l0,-56c118,7 258,10 422,10c90,0 303,-3 640,-10c1,109 8,216 22,322l-66,0c-25,-85 -45,-141 -61,-169c-11,-19 -24,-32 -40,-38c-21,-8 -67,-12 -138,-12l-384,0l-7,302l-2,185zm0,0l0,0zm1609,-590l0,56c-22,5 -38,8 -48,10c-83,14 -131,28 -144,41c-13,13 -20,41 -20,86l0,33l-5,379l3,551c0,43 7,71 20,83c12,12 56,23 131,31c15,2 36,6 63,11l0,56c-101,-7 -198,-10 -291,-10c-96,0 -202,3 -318,10l0,-56c18,-5 32,-8 41,-10c89,-14 139,-27 152,-40c13,-12 19,-43 19,-92l-2,-48l3,-345c0,-356 -1,-552 -3,-590c-1,-20 -8,-36 -20,-48c-12,-11 -59,-24 -142,-40c-11,-2 -28,-6 -50,-12l0,-56c137,7 243,10 320,10c85,0 183,-3 291,-10zm0,0l0,0zm245,367l-73,0c12,-109 22,-231 32,-367c278,7 476,10 594,10c99,0 278,-3 538,-10c8,140 18,262 29,367l-72,0c-29,-116 -48,-184 -57,-203c-9,-20 -21,-34 -38,-43c-16,-9 -59,-13 -126,-13l-208,0c-6,167 -8,374 -8,621c0,229 2,384 8,464c1,19 5,32 14,39c10,9 62,22 154,41c9,1 22,3 40,8l0,56c-124,-7 -235,-10 -332,-10c-92,0 -187,3 -283,10l0,-56c22,-6 39,-9 50,-11c86,-15 136,-27 149,-37c6,-5 10,-12 13,-21c3,-9 5,-79 7,-209c2,-201 3,-351 3,-447c0,-169 -1,-318 -3,-447l-224,0l-41,1c-35,0 -59,4 -70,11c-18,11 -33,34 -47,68c-11,27 -27,86 -49,178zm0,0l0,0zm1304,311c0,-207 66,-376 198,-508c133,-132 304,-198 512,-198c193,0 348,58 463,175c114,116 172,277 172,482c0,228 -65,408 -194,540c-129,131 -299,197 -510,197c-197,0 -354,-60 -469,-179c-115,-120 -172,-289 -172,-509zm0,0l0,0zm206,-28c0,208 45,364 136,467c90,104 205,156 343,156c92,0 173,-24 244,-72c71,-49 124,-119 161,-212c36,-93 54,-197 54,-310c0,-142 -23,-260 -69,-353c-47,-94 -104,-161 -172,-201c-69,-41 -145,-61 -231,-61c-93,0 -177,25 -251,74c-74,49 -128,120 -163,213c-35,94 -52,193 -52,299z" fill="rgb(240,124,0)"/>
         </g>
        </g>
        <g stroke="null" id="svg_149" class="com.sun.star.drawing.ClosedBezierShape">
         <g stroke="null" id="svg_112">
          <rect id="svg_150" height="2960" width="2487" y="261611.312597" x="385631.114882" fill="none" class="BoundingBox"/>
          <path id="svg_151" d="m385775.114882,263236.312597c0,0 691,1361 2341,1333c0,0 -323,-778 -1099,-1089c0,0 -245,-170 232,-255c0,0 292,-9 278,-125c-15,-116 -21,-334 127,-456c0,0 -111,-168 -181,-261c-71,-93 -394,411 -1166,284c0,0 591,-176 874,-537c0,0 54,-96 195,-54c0,0 -150,-475 -374,-464c0,0 -85,-19 -199,110c0,0 -637,-62 -805,584c0,0 -76,39 -218,-3c-141,-43 -381,672 394,950c0,0 -110,116 -399,-17z" fill="rgb(240,124,0)"/>
         </g>
        </g>
        <g stroke="null" id="svg_152" class="Group">
         <g stroke="null" id="svg_153" class="com.sun.star.drawing.ClosedBezierShape">
          <g stroke="null" id="svg_111">
           <rect id="svg_154" height="468" width="1377" y="262407.312597" x="385562.114882" fill="none" class="BoundingBox"/>
           <path id="svg_155" d="m386898.114882,262407.312597c-428,176 -909,76 -1336,254c13,71 26,142 40,213c427,-177 908,-77 1336,-255c-14,-71 -27,-142 -40,-212z" fill="rgb(255,255,255)"/>
          </g>
         </g>
        </g>
        <g stroke="null" id="svg_156" class="com.sun.star.drawing.ClosedBezierShape">
         <g stroke="null" id="svg_110">
          <rect id="svg_157" height="1029" width="8731" y="261808.312597" x="388334.114882" fill="none" class="BoundingBox"/>
          <path id="svg_158" d="m388335.114882,261883.312597l0,-40c90,4 189,7 296,7l306,-6c104,0 187,15 249,45c62,30 110,78 144,144c35,65 52,142 52,229c0,161 -55,294 -164,399c-109,104 -255,157 -439,157c-11,0 -52,-2 -126,-4c-73,-2 -116,-3 -129,-3c-45,0 -108,2 -190,8l0,-41c74,-14 116,-23 124,-25c9,-3 15,-6 19,-10c3,-4 6,-8 7,-15c2,-10 4,-49 5,-117c2,-149 4,-257 4,-326l-4,-301l1,-23c0,-23 -7,-37 -20,-44c-8,-4 -53,-16 -135,-34zm0,0l0,0zm293,853c74,9 136,14 187,14c78,0 143,-13 194,-38c72,-37 128,-91 166,-162c37,-72 56,-159 56,-264c0,-54 -6,-103 -19,-148c-12,-45 -29,-81 -50,-107c-31,-40 -71,-70 -120,-91c-50,-21 -121,-31 -215,-31c-56,0 -123,3 -199,10c-3,120 -5,257 -5,411c0,162 2,297 5,406zm0,0l0,0zm1464,-83l26,40l-137,102c-19,12 -39,22 -59,28c-29,8 -59,13 -90,13c-75,0 -139,-30 -192,-90c-53,-60 -80,-141 -80,-244c0,-110 32,-199 96,-266c64,-66 141,-99 233,-99c71,0 126,20 165,59c39,39 59,99 60,181c-19,11 -37,25 -53,41c-33,-1 -53,-1 -61,-1c-122,0 -228,2 -318,5c-1,103 16,180 52,233c35,53 83,80 142,80c30,0 61,-6 94,-18c32,-12 73,-33 122,-64zm0,0l0,0zm-99,-301c-3,-47 -13,-81 -31,-104c-26,-35 -61,-52 -105,-52c-37,0 -71,13 -101,39c-29,26 -51,69 -66,129c18,1 30,1 39,1c76,0 164,-4 264,-13zm0,0l0,0zm681,-20l-49,-4c-3,-42 -18,-73 -43,-97c-25,-23 -57,-35 -96,-35c-33,0 -59,9 -79,26c-19,18 -29,38 -29,61c0,20 7,40 23,58c21,24 66,53 137,87c70,35 117,68 141,98c24,30 36,65 36,104c0,56 -22,104 -67,145c-45,40 -107,61 -186,61c-56,0 -119,-13 -187,-38c7,-65 11,-124 11,-177l48,0c13,54 34,93 61,116c27,24 61,36 101,36c37,0 64,-10 84,-28c20,-18 30,-41 30,-69c0,-27 -10,-52 -29,-75c-20,-23 -64,-52 -133,-86c-68,-34 -113,-64 -135,-92c-23,-27 -35,-58 -35,-93c0,-51 22,-95 67,-134c45,-39 104,-59 180,-59c52,0 108,12 168,36c-7,37 -13,90 -19,159zm0,0l0,0zm162,-135l0,-38c56,5 104,7 144,7c37,0 92,-2 164,-7l0,38c-7,2 -13,3 -16,3c-30,5 -48,10 -55,16c-6,5 -9,12 -9,20l0,7c1,4 4,14 9,29c27,78 46,132 59,163l82,208c15,-37 46,-116 92,-237c29,-75 45,-120 48,-134c3,-13 4,-24 4,-34c0,-8 -2,-15 -6,-19c-6,-7 -17,-12 -33,-16c-4,-1 -11,-3 -19,-6l0,-38l27,2c51,4 88,5 112,5c23,0 52,-2 89,-7l0,38c-44,14 -72,29 -83,47c-15,25 -93,222 -236,592l-41,0c-116,-299 -192,-485 -227,-561c-12,-25 -24,-42 -36,-51c-8,-7 -32,-16 -69,-27zm0,0l0,0zm1300,456l26,40l-137,102c-19,12 -39,22 -59,28c-29,8 -60,13 -90,13c-75,0 -139,-30 -192,-90c-53,-60 -80,-141 -80,-244c0,-110 32,-199 96,-266c63,-66 141,-99 233,-99c71,0 126,20 165,59c39,39 58,99 59,181c-19,11 -36,25 -52,41c-33,-1 -53,-1 -61,-1c-122,0 -228,2 -319,5c0,103 17,180 53,233c35,53 82,80 142,80c30,0 61,-6 93,-18c33,-12 74,-33 123,-64zm0,0l0,0zm-100,-301c-2,-47 -13,-81 -30,-104c-26,-35 -61,-52 -105,-52c-37,0 -71,13 -101,39c-29,26 -51,69 -66,129c17,1 30,1 39,1c76,0 164,-4 263,-13zm0,0l0,0zm246,-83l0,-38c83,-19 159,-48 226,-87l18,12c-6,39 -10,79 -11,120l87,-87c14,-13 32,-23 52,-30c27,-10 55,-15 84,-15c65,0 115,22 148,65c23,29 34,79 34,150l-2,167c0,111 1,177 3,197c3,14 7,23 14,29c6,5 28,13 65,21c7,2 17,5 31,8l0,38c-54,-5 -102,-7 -145,-7c-36,0 -99,2 -188,7l0,-38c53,-16 84,-26 90,-32c7,-5 11,-14 12,-26c6,-46 8,-116 8,-209c0,-100 -2,-161 -6,-181c-7,-32 -20,-55 -41,-71c-21,-17 -46,-25 -75,-25c-30,0 -60,9 -89,26c-30,18 -51,42 -65,73c-14,29 -22,73 -22,132c0,165 4,254 11,268c7,13 33,26 80,38c6,2 15,4 26,7l0,38c-61,-5 -113,-7 -155,-7c-41,0 -101,2 -181,7l0,-38c55,-13 86,-22 93,-28c5,-4 8,-14 10,-29c6,-44 9,-104 9,-179c0,-156 -2,-242 -5,-255c-5,-20 -19,-29 -41,-29c-10,0 -26,2 -48,5c-6,1 -15,2 -27,3zm0,0l0,0zm1229,-333l0,-38c49,-15 85,-26 108,-35c22,-9 60,-28 114,-55l17,14c-10,106 -14,304 -14,594c0,160 2,249 6,268c4,18 18,27 41,27c14,0 38,-3 72,-9l0,38c-95,29 -169,58 -222,89l-17,-13c5,-35 9,-69 10,-103c-57,52 -99,84 -126,97c-27,12 -59,19 -96,19c-70,0 -127,-26 -173,-79c-46,-52 -69,-127 -69,-223c0,-66 11,-123 33,-170c17,-38 42,-73 74,-105c32,-33 67,-59 107,-79c40,-19 79,-29 119,-29c18,0 39,2 61,7c22,4 47,11 73,21c1,-23 2,-37 2,-40c0,-108 -2,-168 -6,-179c-6,-17 -21,-26 -46,-26c-8,0 -23,2 -44,5c-6,1 -14,2 -24,4zm0,0l0,0zm119,533c0,-90 -3,-142 -7,-157c-8,-27 -25,-50 -53,-69c-29,-19 -64,-29 -105,-29c-52,0 -97,22 -133,65c-37,44 -55,107 -55,191c0,86 19,151 56,196c37,45 81,67 133,67c34,0 65,-10 93,-29c29,-20 48,-44 57,-72c9,-27 14,-82 14,-163zm0,0l0,0zm442,-117l-45,-5c9,-48 16,-95 20,-143c89,-40 169,-60 241,-60c31,0 59,4 84,13c25,9 45,22 60,37c15,16 26,35 33,57c8,22 11,57 11,106l-6,283c0,38 5,63 13,75c9,12 20,18 34,18c17,0 43,-12 78,-35l22,28c-65,58 -101,88 -106,92c-13,7 -29,11 -49,11c-30,0 -53,-8 -69,-23c-16,-15 -27,-41 -33,-76c-54,43 -95,70 -122,82c-26,11 -55,17 -86,17c-51,0 -92,-16 -123,-47c-32,-31 -47,-70 -47,-118c0,-30 5,-56 16,-80c11,-23 27,-44 48,-62c16,-13 43,-29 81,-48c89,-44 167,-79 233,-105c-2,-66 -13,-109 -32,-130c-19,-21 -48,-32 -88,-32c-38,0 -70,12 -96,35c-27,23 -51,59 -72,110zm0,0l0,0zm288,76c-119,54 -192,93 -217,117c-25,25 -37,54 -37,89c0,34 9,62 28,82c19,21 41,31 66,31c26,0 55,-8 85,-26c31,-18 51,-37 61,-58c10,-22 14,-61 14,-118l0,-117zm0,0l0,0zm345,-159l0,-38c83,-19 158,-48 226,-87l19,12c-6,39 -10,79 -11,120l87,-87c14,-13 32,-23 51,-30c27,-10 55,-15 85,-15c65,0 115,22 148,65c23,29 34,79 34,150l-2,167c0,111 1,177 3,197c3,14 7,23 13,29c7,5 29,13 66,21c7,2 17,5 31,8l0,38c-54,-5 -102,-7 -145,-7c-37,0 -99,2 -189,7l0,-38c54,-16 84,-26 91,-32c7,-5 11,-14 12,-26c5,-46 8,-116 8,-209c0,-100 -2,-161 -6,-181c-7,-32 -20,-55 -41,-71c-21,-17 -46,-25 -75,-25c-30,0 -60,9 -89,26c-30,18 -52,42 -66,73c-14,29 -21,73 -21,132c0,165 4,254 11,268c6,13 33,26 80,38c6,2 15,4 26,7l0,38c-62,-5 -113,-7 -155,-7c-42,0 -102,2 -182,7l0,-38c54,-13 85,-22 93,-28c4,-4 8,-14 9,-29c7,-44 10,-104 10,-179c0,-156 -2,-242 -5,-255c-5,-20 -19,-29 -41,-29c-10,0 -26,2 -48,5c-6,1 -15,2 -27,3zm0,0l0,0zm1229,-333l0,-38c50,-15 86,-26 108,-35c23,-9 61,-28 115,-55l17,14c-10,106 -14,304 -14,594c0,160 2,249 6,268c4,18 18,27 41,27c13,0 38,-3 72,-9l0,38c-95,29 -170,58 -222,89l-17,-13c5,-35 8,-69 10,-103c-57,52 -99,84 -126,97c-27,12 -59,19 -96,19c-70,0 -128,-26 -174,-79c-46,-52 -69,-127 -69,-223c0,-66 12,-123 34,-170c17,-38 42,-73 73,-105c33,-33 68,-59 108,-79c39,-19 79,-29 119,-29c18,0 38,2 61,7c22,4 47,11 73,21c1,-23 2,-37 2,-40c0,-108 -2,-168 -7,-179c-5,-17 -20,-26 -45,-26c-8,0 -23,2 -44,5c-6,1 -14,2 -25,4zm0,0l0,0zm119,533c0,-90 -2,-142 -6,-157c-8,-27 -26,-50 -54,-69c-28,-19 -63,-29 -104,-29c-52,0 -97,22 -133,65c-37,44 -55,107 -55,191c0,86 18,151 55,196c38,45 82,67 133,67c35,0 66,-10 94,-29c29,-20 47,-44 57,-72c9,-27 13,-82 13,-163zm0,0l0,0zm356,29c0,-111 31,-200 94,-264c62,-65 145,-97 247,-97c96,0 173,29 229,87c57,58 85,141 85,245c0,113 -31,202 -95,268c-63,66 -145,99 -246,99c-97,0 -174,-29 -230,-88c-56,-59 -84,-142 -84,-250zm0,0l0,0zm132,-59c0,75 5,130 14,166c15,57 39,100 72,130c33,29 71,43 114,43c56,0 102,-21 138,-64c36,-43 54,-112 54,-206c0,-106 -20,-185 -61,-237c-41,-51 -89,-76 -144,-76c-55,0 -100,19 -135,60c-35,40 -52,102 -52,184z" fill="rgb(155,157,159)"/>
         </g>
        </g>
        <g stroke="null" id="svg_159" class="com.sun.star.drawing.ClosedBezierShape">
         <g stroke="null" id="svg_109">
          <rect id="svg_160" height="2197" width="506" y="262118.312597" x="397238.114882" fill="none" class="BoundingBox"/>
          <path id="svg_161" d="m397657.114882,264275.312597c0,-10 4,-19 11,-26c8,-7 17,-11 27,-11c11,0 19,4 27,11c7,8 11,17 11,27c-1,10 -4,19 -12,27c-7,7 -16,10 -26,10c-11,0 -20,-3 -27,-11c-7,-7 -11,-16 -11,-27zm0,0l0,0zm-149,-373l-2,23c-28,1 -49,8 -63,21c-14,13 -21,31 -21,54c0,17 5,33 14,48c9,15 23,27 44,36c21,9 44,13 70,13c42,1 76,-9 100,-29c23,-20 35,-44 35,-71c1,-28 -11,-61 -33,-101l20,-12c26,35 45,65 55,88c5,11 7,25 7,41c0,39 -12,71 -35,95c-30,32 -72,48 -124,48c-54,-1 -98,-18 -132,-52c-35,-34 -52,-75 -52,-125c1,-33 9,-66 27,-97c8,2 17,4 30,7c15,4 36,8 60,13zm0,0l0,0zm61,-59c-55,0 -98,-16 -129,-47c-31,-31 -47,-72 -47,-122c1,-48 15,-85 44,-113c28,-27 68,-41 120,-40c55,0 100,16 132,47c32,31 48,72 47,121c0,48 -15,86 -44,114c-28,27 -69,40 -123,40zm0,0l0,0zm-29,-65c37,0 64,-2 82,-6c29,-9 50,-20 64,-36c15,-16 22,-35 22,-56c0,-28 -10,-50 -31,-68c-21,-18 -55,-27 -102,-27c-52,-1 -90,9 -116,29c-25,20 -37,44 -38,71c0,26 10,48 29,66c20,18 50,27 90,27zm0,0l0,0zm-81,-299l-18,-1c-12,-41 -26,-77 -42,-106l7,-8c17,3 37,5 57,6l-44,-49c-6,-7 -10,-14 -13,-23c-5,-12 -7,-25 -7,-38c0,-25 7,-46 21,-63c9,-11 24,-20 44,-25c-27,-25 -44,-43 -50,-54c-9,-18 -14,-36 -13,-57c0,-17 3,-32 10,-46c8,-13 16,-23 25,-30c10,-6 19,-10 30,-11c10,-2 27,-3 51,-3l93,2c47,0 74,-1 81,-2c5,-2 9,-4 11,-8c3,-3 7,-18 12,-44l19,0c-3,28 -4,52 -4,72c0,17 1,47 3,90l-19,0c-1,-4 -2,-8 -3,-10c-6,-20 -10,-31 -13,-34c-4,-3 -13,-6 -29,-7c-31,-2 -67,-4 -107,-4c-39,0 -64,1 -75,5c-12,3 -22,9 -28,19c-7,9 -11,21 -11,35c0,20 6,37 17,52c12,15 27,25 45,30c10,3 40,5 91,5c59,0 91,-1 97,-5c5,-3 11,-20 16,-49l19,0c-3,29 -4,56 -4,80c-1,25 0,52 2,82l-18,-1l-2,-8c-6,-21 -11,-33 -15,-36c-8,-5 -29,-8 -63,-8l-101,-2c-32,-1 -54,4 -66,15c-13,10 -19,24 -19,43c0,16 5,32 14,47c9,15 22,25 38,33c12,5 33,8 62,8l59,0c44,0 69,-2 74,-5c5,-3 10,-16 16,-40c0,-3 1,-6 3,-11l18,0c-2,27 -3,51 -4,72c0,20 1,50 3,88l-18,0c-6,-26 -10,-41 -14,-44c-5,-4 -22,-6 -50,-6l-9,0l-100,-3c-42,0 -67,1 -73,5c-6,3 -9,9 -9,18c0,6 1,18 3,34zm0,0l0,0zm207,-663c1,-10 4,-19 12,-27c7,-7 16,-10 26,-10c11,0 19,3 27,11c7,7 11,16 11,26c0,11 -4,20 -12,27c-7,7 -16,11 -26,11c-11,0 -20,-4 -27,-11c-7,-8 -11,-17 -11,-27zm0,0l0,0zm-366,-91l-18,-1c-14,-44 -28,-82 -44,-111l7,-9c45,6 111,10 200,10l29,0c-35,-34 -55,-55 -61,-66c-6,-10 -8,-24 -8,-42c0,-21 5,-41 16,-60c10,-18 26,-32 48,-42c21,-10 47,-15 75,-15c56,1 105,20 143,57c38,38 56,83 56,136c0,29 -8,60 -24,93c-76,-4 -177,-6 -300,-7l-69,0l-16,0c-15,0 -26,2 -30,5c-5,3 -8,8 -8,15c0,7 2,19 4,37zm0,0l0,0zm389,-109c12,-21 18,-42 18,-64c1,-30 -10,-55 -32,-74c-22,-19 -56,-29 -101,-29c-40,-1 -69,7 -89,23c-19,15 -29,34 -29,56c-1,14 3,27 10,39c7,12 17,22 29,30c12,9 24,14 35,16c7,1 24,2 53,2l106,1zm0,0l0,0zm-223,-262l-18,0c-10,-42 -24,-78 -42,-107l6,-9c22,4 46,6 72,7c-33,-28 -53,-47 -61,-57c-7,-11 -11,-24 -11,-38c0,-10 3,-21 8,-32c22,5 46,9 70,12l0,18c-11,1 -19,5 -24,9c-4,5 -7,10 -7,16c0,9 4,18 12,29c13,15 27,26 43,33c16,7 38,10 68,10c53,1 88,0 106,-3c6,-1 12,-4 16,-9c3,-5 8,-21 15,-48l18,0c-2,28 -3,54 -4,76c0,19 1,51 3,95l-18,0c-8,-31 -14,-49 -18,-53c-4,-4 -15,-6 -33,-6l-75,-1c-72,-1 -110,0 -116,2c-9,2 -14,8 -14,19c0,5 1,15 3,29c1,2 1,5 1,8z" fill="rgb(155,157,159)"/>
         </g>
        </g>
       </g>
      </g>
     </g>
    </g>
   </g>
  </g>
  <defs>
   <g id="svg_50"/>
  </defs>
  <defs>
   <g transform="scale(0.00048828125,-0.00048828125) " id="svg_45">
    <path id="svg_51" d="m580,1141l583,-570l-583,-571l-584,571l584,570z"/>
   </g>
   <g transform="scale(0.00048828125,-0.00048828125) " id="svg_44">
    <path id="svg_52" d="m8,1128l1129,0l0,-1128l-1129,0l0,1128z"/>
   </g>
   <g transform="scale(0.00048828125,-0.00048828125) " id="svg_43">
    <path id="svg_53" d="m174,0l428,739l-428,742l1282,-742l-1282,-739zm1184,739l-1049,607l350,-607l699,0z"/>
   </g>
   <g transform="scale(0.00048828125,-0.00048828125) " id="svg_42">
    <path id="svg_54" d="m2015,739l-739,-739l-559,0l543,543l-1086,0l0,393l1086,0l-543,545l557,0l741,-742z"/>
   </g>
   <g transform="scale(0.00048828125,-0.00048828125) " id="svg_41">
    <path id="svg_55" d="m0,-2c-7,16 -16,29 -25,39l381,530c-94,256 -141,385 -141,387c0,25 13,38 40,38c9,0 21,-2 34,-5c21,4 42,12 65,25l27,-13l111,-251l280,301l64,-25l24,25c21,-10 41,-24 62,-43c-36,-69 -87,-143 -152,-222c-1,-1 -60,-68 -176,-200l180,-361c0,-27 -21,-55 -63,-84l16,-20c-10,-29 -28,-43 -55,-43c-31,0 -102,102 -215,305l-293,-457c-22,-34 -53,-51 -92,-51c-42,0 -63,17 -64,51c-7,9 -10,24 -10,44c0,9 1,19 2,30z"/>
   </g>
   <g transform="scale(0.00048828125,-0.00048828125) " id="svg_40">
    <path id="svg_56" d="m285,-33c-103,0 -174,63 -211,189c-22,72 -33,177 -33,315c0,78 14,145 41,201c34,71 87,106 158,106c53,0 88,-31 106,-94l23,-176c8,-64 28,-97 59,-98l735,706c11,11 33,17 66,17c42,0 63,-15 63,-46l0,-122c0,-36 -10,-64 -30,-84l-820,-834c-52,-53 -104,-80 -157,-80z"/>
   </g>
   <g transform="scale(0.00048828125,-0.00048828125) " id="svg_39">
    <path id="svg_57" d="m813,0c-181,0 -324,54 -430,161c-107,107 -160,250 -160,431c0,181 53,324 160,431c106,107 249,161 430,161c179,0 323,-54 432,-161c108,-107 162,-251 162,-431c0,-180 -54,-324 -162,-431c-109,-107 -253,-161 -432,-161z"/>
   </g>
   <g transform="scale(0.00048828125,-0.00048828125) " id="svg_38">
    <path id="svg_58" d="m346,457c-73,0 -137,26 -191,78c-54,51 -81,114 -81,188c0,73 27,136 81,188c54,52 118,78 191,78c73,0 134,-26 185,-79c51,-51 77,-114 77,-187c0,-75 -25,-137 -76,-188c-50,-52 -112,-78 -186,-78z"/>
   </g>
   <g transform="scale(0.00048828125,-0.00048828125) " id="svg_37">
    <path id="svg_59" d="m-4,459l1139,0l0,147l-1139,0l0,-147z"/>
   </g>
   <g transform="scale(0.00048828125,-0.00048828125) " id="svg_36">
    <path id="svg_60" d="m173,740c0,163 58,303 173,419c116,115 255,173 419,173c163,0 302,-58 418,-173c116,-116 174,-256 174,-419c0,-163 -58,-303 -174,-418c-116,-116 -255,-174 -418,-174c-164,0 -303,58 -419,174c-115,115 -173,255 -173,418z"/>
   </g>
  </defs>

  <g stroke="null" id="svg_81">
   <g stroke="null" transform="matrix(0.000020154155906757648,0,0,0.000020154155906757648,0,0) " id="svg_61">
    <g stroke="null" class="Master_Slide" id="svg_33">
     <g stroke="null" class="Background" id="svg_35"/>
     <g stroke="null" class="BackgroundObjects" id="svg_34"/>
    </g>
   </g>
   <g stroke="null" transform="matrix(0.000020154155906757648,0,0,0.000020154155906757648,0,0) " id="svg_62" class="SlideGroup">
    <g stroke="null" id="svg_63">
     <g stroke="null" id="svg_25">
      <g stroke="null" clip-path="url(#svg_27)" class="Slide" id="svg_26">
       <g stroke="null" id="svg_64" class="Page">
        <g stroke="null" id="svg_65" class="com.sun.star.drawing.ClosedBezierShape">
         <g stroke="null" id="svg_32">
          <rect id="svg_66" height="1395" width="8805" y="9972992.558594" x="56790.558594" fill="none" class="BoundingBox"/>
          <path id="svg_67" d="m56791.558594,9973076.558594l0,-56c124,7 260,10 406,10l419,-8c142,0 256,21 341,62c85,41 151,107 197,197c48,89 71,194 71,313c0,221 -75,403 -224,546c-149,143 -350,215 -602,215c-14,0 -71,-2 -172,-5c-100,-3 -159,-5 -177,-5c-61,0 -147,4 -260,12l0,-56c102,-20 159,-31 170,-35c12,-4 20,-8 25,-13c5,-5 9,-12 11,-21c3,-13 5,-66 6,-160c3,-203 5,-352 5,-446l-5,-412l1,-31c0,-32 -9,-52 -27,-60c-10,-7 -72,-22 -185,-47zm0,0l0,0zm401,1167c102,13 187,19 256,19c108,0 196,-17 266,-51c100,-51 175,-126 227,-223c52,-98 78,-217 78,-360c0,-74 -9,-142 -26,-204c-17,-61 -40,-110 -69,-146c-42,-54 -97,-95 -165,-124c-68,-29 -166,-43 -294,-43c-77,0 -168,4 -273,13c-4,166 -6,353 -6,562c0,223 2,408 6,557zm0,0l0,0zm1867,-1223l0,56c-22,5 -38,8 -48,10c-83,14 -131,28 -144,41c-13,13 -20,41 -20,86l0,33l-5,379l3,551c0,43 7,71 20,83c12,12 56,23 131,31c15,2 36,6 63,11l0,56c-101,-7 -198,-10 -291,-10c-96,0 -202,3 -318,10l0,-56c18,-5 32,-8 41,-10c89,-14 139,-27 152,-40c13,-12 19,-43 19,-92l-2,-48l3,-345c0,-356 -1,-552 -3,-590c-1,-20 -8,-36 -20,-48c-12,-11 -59,-24 -142,-40c-11,-2 -28,-6 -50,-12l0,-56c137,7 243,10 320,10c85,0 183,-3 291,-10zm0,0l0,0zm170,56l0,-56c166,7 300,10 400,10c58,0 112,0 162,-1c66,-2 113,-3 138,-3c123,0 215,29 277,86c62,58 92,137 92,236c0,66 -13,124 -41,175c-28,51 -69,94 -121,129c-39,25 -93,48 -164,68l312,409c39,51 64,81 74,90c16,13 36,24 61,34c35,14 95,30 178,48l0,56c-99,-7 -171,-10 -217,-10c-52,0 -105,3 -160,10c-28,-47 -66,-107 -115,-178c-48,-71 -77,-113 -88,-127c-6,-7 -13,-15 -18,-23l-207,-285c-56,-1 -113,-5 -170,-12l8,475c1,18 7,33 17,42c15,13 63,26 142,41c12,2 29,5 53,11l0,56c-114,-7 -214,-10 -301,-10c-93,0 -197,3 -312,10l0,-56l40,-8c90,-17 140,-32 153,-43c12,-10 19,-30 21,-58c1,-18 3,-179 5,-484l-4,-443c-1,-67 -3,-106 -5,-116c-3,-10 -9,-18 -19,-23c-31,-16 -79,-30 -145,-40c-10,-2 -26,-5 -46,-10zm0,0l0,0zm393,576c66,7 116,10 152,10c115,0 200,-25 255,-76c55,-51 82,-121 82,-212c0,-79 -24,-141 -73,-187c-49,-46 -120,-68 -213,-68c-33,0 -99,4 -197,11l-6,522zm0,0l0,0zm1469,-42l230,0c89,0 141,-2 157,-7c16,-5 29,-14 39,-29c9,-15 21,-57 36,-126c2,-7 5,-18 9,-33l61,0c-6,104 -9,184 -9,240c0,59 3,138 9,239l-61,0c-19,-91 -30,-141 -34,-152c-7,-15 -18,-26 -34,-32c-15,-7 -62,-10 -140,-10l-261,0l5,555l396,0l35,-1c54,0 88,-3 102,-7c24,-8 45,-22 63,-41c19,-19 52,-73 101,-161c5,-9 13,-22 23,-39l65,0c-7,20 -46,137 -116,351c-229,-7 -437,-10 -627,-10c-132,0 -278,3 -437,10l0,-56l153,-33c24,-7 39,-14 45,-21c9,-12 14,-36 14,-74l0,-17l5,-221c1,-43 1,-126 1,-252c0,-181 -1,-314 -2,-398c-1,-85 -5,-133 -9,-144c-4,-7 -10,-13 -18,-18c-7,-5 -36,-13 -86,-24l-101,-23l0,-56c118,7 258,10 422,10c90,0 303,-3 640,-10c1,109 8,216 22,322l-66,0c-25,-85 -45,-141 -61,-169c-11,-19 -24,-32 -40,-38c-21,-8 -67,-12 -138,-12l-384,0l-7,302l-2,185zm0,0l0,0zm1609,-590l0,56c-22,5 -38,8 -48,10c-83,14 -131,28 -144,41c-13,13 -20,41 -20,86l0,33l-5,379l3,551c0,43 7,71 20,83c12,12 56,23 131,31c15,2 36,6 63,11l0,56c-101,-7 -198,-10 -291,-10c-96,0 -202,3 -318,10l0,-56c18,-5 32,-8 41,-10c89,-14 139,-27 152,-40c13,-12 19,-43 19,-92l-2,-48l3,-345c0,-356 -1,-552 -3,-590c-1,-20 -8,-36 -20,-48c-12,-11 -59,-24 -142,-40c-11,-2 -28,-6 -50,-12l0,-56c137,7 243,10 320,10c85,0 183,-3 291,-10zm0,0l0,0zm245,367l-73,0c12,-109 22,-231 32,-367c278,7 476,10 594,10c99,0 278,-3 538,-10c8,140 18,262 29,367l-72,0c-29,-116 -48,-184 -57,-203c-9,-20 -21,-34 -38,-43c-16,-9 -59,-13 -126,-13l-208,0c-6,167 -8,374 -8,621c0,229 2,384 8,464c1,19 5,32 14,39c10,9 62,22 154,41c9,1 22,3 40,8l0,56c-124,-7 -235,-10 -332,-10c-92,0 -187,3 -283,10l0,-56c22,-6 39,-9 50,-11c86,-15 136,-27 149,-37c6,-5 10,-12 13,-21c3,-9 5,-79 7,-209c2,-201 3,-351 3,-447c0,-169 -1,-318 -3,-447l-224,0l-41,1c-35,0 -59,4 -70,11c-18,11 -33,34 -47,68c-11,27 -27,86 -49,178zm0,0l0,0zm1304,311c0,-207 66,-376 198,-508c133,-132 304,-198 512,-198c193,0 348,58 463,175c114,116 172,277 172,482c0,228 -65,408 -194,540c-129,131 -299,197 -510,197c-197,0 -354,-60 -469,-179c-115,-120 -172,-289 -172,-509zm0,0l0,0zm206,-28c0,208 45,364 136,467c90,104 205,156 343,156c92,0 173,-24 244,-72c71,-49 124,-119 161,-212c36,-93 54,-197 54,-310c0,-142 -23,-260 -69,-353c-47,-94 -104,-161 -172,-201c-69,-41 -145,-61 -231,-61c-93,0 -177,25 -251,74c-74,49 -128,120 -163,213c-35,94 -52,193 -52,299z" fill="rgb(240,124,0)"/>
         </g>
        </g>
        <g stroke="null" id="svg_68" class="com.sun.star.drawing.ClosedBezierShape">
         <g stroke="null" id="svg_31">
          <rect id="svg_69" height="2960" width="2487" y="9971649.558594" x="54114.558594" fill="none" class="BoundingBox"/>
          <path id="svg_70" d="m54258.558594,9973274.558594c0,0 691,1361 2341,1333c0,0 -323,-778 -1099,-1089c0,0 -245,-170 232,-255c0,0 292,-9 278,-125c-15,-116 -21,-334 127,-456c0,0 -111,-168 -181,-261c-71,-93 -394,411 -1166,284c0,0 591,-176 874,-537c0,0 54,-96 195,-54c0,0 -150,-475 -374,-464c0,0 -85,-19 -199,110c0,0 -637,-62 -805,584c0,0 -76,39 -218,-3c-141,-43 -381,672 394,950c0,0 -110,116 -399,-17z" fill="rgb(240,124,0)"/>
         </g>
        </g>
        <g stroke="null" id="svg_71" class="Group">
         <g stroke="null" id="svg_72" class="com.sun.star.drawing.ClosedBezierShape">
          <g stroke="null" id="svg_30">
           <rect id="svg_73" height="468" width="1377" y="9972445.558594" x="54045.558594" fill="none" class="BoundingBox"/>
           <path id="svg_74" d="m55381.558594,9972445.558594c-428,176 -909,76 -1336,254c13,71 26,142 40,213c427,-177 908,-77 1336,-255c-14,-71 -27,-142 -40,-212z" fill="rgb(255,255,255)"/>
          </g>
         </g>
        </g>
        <g stroke="null" id="svg_75" class="com.sun.star.drawing.ClosedBezierShape">
         <g stroke="null" id="svg_29">
          <rect id="svg_76" height="1029" width="8731" y="9971846.558594" x="56817.558594" fill="none" class="BoundingBox"/>
          <path id="svg_77" d="m56818.558594,9971921.558594l0,-40c90,4 189,7 296,7l306,-6c104,0 187,15 249,45c62,30 110,78 144,144c35,65 52,142 52,229c0,161 -55,294 -164,399c-109,104 -255,157 -439,157c-11,0 -52,-2 -126,-4c-73,-2 -116,-3 -129,-3c-45,0 -108,2 -190,8l0,-41c74,-14 116,-23 124,-25c9,-3 15,-6 19,-10c3,-4 6,-8 7,-15c2,-10 4,-49 5,-117c2,-149 4,-257 4,-326l-4,-301l1,-23c0,-23 -7,-37 -20,-44c-8,-4 -53,-16 -135,-34zm0,0l0,0zm293,853c74,9 136,14 187,14c78,0 143,-13 194,-38c72,-37 128,-91 166,-162c37,-72 56,-159 56,-264c0,-54 -6,-103 -19,-148c-12,-45 -29,-81 -50,-107c-31,-40 -71,-70 -120,-91c-50,-21 -121,-31 -215,-31c-56,0 -123,3 -199,10c-3,120 -5,257 -5,411c0,162 2,297 5,406zm0,0l0,0zm1464,-83l26,40l-137,102c-19,12 -39,22 -59,28c-29,8 -59,13 -90,13c-75,0 -139,-30 -192,-90c-53,-60 -80,-141 -80,-244c0,-110 32,-199 96,-266c64,-66 141,-99 233,-99c71,0 126,20 165,59c39,39 59,99 60,181c-19,11 -37,25 -53,41c-33,-1 -53,-1 -61,-1c-122,0 -228,2 -318,5c-1,103 16,180 52,233c35,53 83,80 142,80c30,0 61,-6 94,-18c32,-12 73,-33 122,-64zm0,0l0,0zm-99,-301c-3,-47 -13,-81 -31,-104c-26,-35 -61,-52 -105,-52c-37,0 -71,13 -101,39c-29,26 -51,69 -66,129c18,1 30,1 39,1c76,0 164,-4 264,-13zm0,0l0,0zm681,-20l-49,-4c-3,-42 -18,-73 -43,-97c-25,-23 -57,-35 -96,-35c-33,0 -59,9 -79,26c-19,18 -29,38 -29,61c0,20 7,40 23,58c21,24 66,53 137,87c70,35 117,68 141,98c24,30 36,65 36,104c0,56 -22,104 -67,145c-45,40 -107,61 -186,61c-56,0 -119,-13 -187,-38c7,-65 11,-124 11,-177l48,0c13,54 34,93 61,116c27,24 61,36 101,36c37,0 64,-10 84,-28c20,-18 30,-41 30,-69c0,-27 -10,-52 -29,-75c-20,-23 -64,-52 -133,-86c-68,-34 -113,-64 -135,-92c-23,-27 -35,-58 -35,-93c0,-51 22,-95 67,-134c45,-39 104,-59 180,-59c52,0 108,12 168,36c-7,37 -13,90 -19,159zm0,0l0,0zm162,-135l0,-38c56,5 104,7 144,7c37,0 92,-2 164,-7l0,38c-7,2 -13,3 -16,3c-30,5 -48,10 -55,16c-6,5 -9,12 -9,20l0,7c1,4 4,14 9,29c27,78 46,132 59,163l82,208c15,-37 46,-116 92,-237c29,-75 45,-120 48,-134c3,-13 4,-24 4,-34c0,-8 -2,-15 -6,-19c-6,-7 -17,-12 -33,-16c-4,-1 -11,-3 -19,-6l0,-38l27,2c51,4 88,5 112,5c23,0 52,-2 89,-7l0,38c-44,14 -72,29 -83,47c-15,25 -93,222 -236,592l-41,0c-116,-299 -192,-485 -227,-561c-12,-25 -24,-42 -36,-51c-8,-7 -32,-16 -69,-27zm0,0l0,0zm1300,456l26,40l-137,102c-19,12 -39,22 -59,28c-29,8 -60,13 -90,13c-75,0 -139,-30 -192,-90c-53,-60 -80,-141 -80,-244c0,-110 32,-199 96,-266c63,-66 141,-99 233,-99c71,0 126,20 165,59c39,39 58,99 59,181c-19,11 -36,25 -52,41c-33,-1 -53,-1 -61,-1c-122,0 -228,2 -319,5c0,103 17,180 53,233c35,53 82,80 142,80c30,0 61,-6 93,-18c33,-12 74,-33 123,-64zm0,0l0,0zm-100,-301c-2,-47 -13,-81 -30,-104c-26,-35 -61,-52 -105,-52c-37,0 -71,13 -101,39c-29,26 -51,69 -66,129c17,1 30,1 39,1c76,0 164,-4 263,-13zm0,0l0,0zm246,-83l0,-38c83,-19 159,-48 226,-87l18,12c-6,39 -10,79 -11,120l87,-87c14,-13 32,-23 52,-30c27,-10 55,-15 84,-15c65,0 115,22 148,65c23,29 34,79 34,150l-2,167c0,111 1,177 3,197c3,14 7,23 14,29c6,5 28,13 65,21c7,2 17,5 31,8l0,38c-54,-5 -102,-7 -145,-7c-36,0 -99,2 -188,7l0,-38c53,-16 84,-26 90,-32c7,-5 11,-14 12,-26c6,-46 8,-116 8,-209c0,-100 -2,-161 -6,-181c-7,-32 -20,-55 -41,-71c-21,-17 -46,-25 -75,-25c-30,0 -60,9 -89,26c-30,18 -51,42 -65,73c-14,29 -22,73 -22,132c0,165 4,254 11,268c7,13 33,26 80,38c6,2 15,4 26,7l0,38c-61,-5 -113,-7 -155,-7c-41,0 -101,2 -181,7l0,-38c55,-13 86,-22 93,-28c5,-4 8,-14 10,-29c6,-44 9,-104 9,-179c0,-156 -2,-242 -5,-255c-5,-20 -19,-29 -41,-29c-10,0 -26,2 -48,5c-6,1 -15,2 -27,3zm0,0l0,0zm1229,-333l0,-38c49,-15 85,-26 108,-35c22,-9 60,-28 114,-55l17,14c-10,106 -14,304 -14,594c0,160 2,249 6,268c4,18 18,27 41,27c14,0 38,-3 72,-9l0,38c-95,29 -169,58 -222,89l-17,-13c5,-35 9,-69 10,-103c-57,52 -99,84 -126,97c-27,12 -59,19 -96,19c-70,0 -127,-26 -173,-79c-46,-52 -69,-127 -69,-223c0,-66 11,-123 33,-170c17,-38 42,-73 74,-105c32,-33 67,-59 107,-79c40,-19 79,-29 119,-29c18,0 39,2 61,7c22,4 47,11 73,21c1,-23 2,-37 2,-40c0,-108 -2,-168 -6,-179c-6,-17 -21,-26 -46,-26c-8,0 -23,2 -44,5c-6,1 -14,2 -24,4zm0,0l0,0zm119,533c0,-90 -3,-142 -7,-157c-8,-27 -25,-50 -53,-69c-29,-19 -64,-29 -105,-29c-52,0 -97,22 -133,65c-37,44 -55,107 -55,191c0,86 19,151 56,196c37,45 81,67 133,67c34,0 65,-10 93,-29c29,-20 48,-44 57,-72c9,-27 14,-82 14,-163zm0,0l0,0zm442,-117l-45,-5c9,-48 16,-95 20,-143c89,-40 169,-60 241,-60c31,0 59,4 84,13c25,9 45,22 60,37c15,16 26,35 33,57c8,22 11,57 11,106l-6,283c0,38 5,63 13,75c9,12 20,18 34,18c17,0 43,-12 78,-35l22,28c-65,58 -101,88 -106,92c-13,7 -29,11 -49,11c-30,0 -53,-8 -69,-23c-16,-15 -27,-41 -33,-76c-54,43 -95,70 -122,82c-26,11 -55,17 -86,17c-51,0 -92,-16 -123,-47c-32,-31 -47,-70 -47,-118c0,-30 5,-56 16,-80c11,-23 27,-44 48,-62c16,-13 43,-29 81,-48c89,-44 167,-79 233,-105c-2,-66 -13,-109 -32,-130c-19,-21 -48,-32 -88,-32c-38,0 -70,12 -96,35c-27,23 -51,59 -72,110zm0,0l0,0zm288,76c-119,54 -192,93 -217,117c-25,25 -37,54 -37,89c0,34 9,62 28,82c19,21 41,31 66,31c26,0 55,-8 85,-26c31,-18 51,-37 61,-58c10,-22 14,-61 14,-118l0,-117zm0,0l0,0zm345,-159l0,-38c83,-19 158,-48 226,-87l19,12c-6,39 -10,79 -11,120l87,-87c14,-13 32,-23 51,-30c27,-10 55,-15 85,-15c65,0 115,22 148,65c23,29 34,79 34,150l-2,167c0,111 1,177 3,197c3,14 7,23 13,29c7,5 29,13 66,21c7,2 17,5 31,8l0,38c-54,-5 -102,-7 -145,-7c-37,0 -99,2 -189,7l0,-38c54,-16 84,-26 91,-32c7,-5 11,-14 12,-26c5,-46 8,-116 8,-209c0,-100 -2,-161 -6,-181c-7,-32 -20,-55 -41,-71c-21,-17 -46,-25 -75,-25c-30,0 -60,9 -89,26c-30,18 -52,42 -66,73c-14,29 -21,73 -21,132c0,165 4,254 11,268c6,13 33,26 80,38c6,2 15,4 26,7l0,38c-62,-5 -113,-7 -155,-7c-42,0 -102,2 -182,7l0,-38c54,-13 85,-22 93,-28c4,-4 8,-14 9,-29c7,-44 10,-104 10,-179c0,-156 -2,-242 -5,-255c-5,-20 -19,-29 -41,-29c-10,0 -26,2 -48,5c-6,1 -15,2 -27,3zm0,0l0,0zm1229,-333l0,-38c50,-15 86,-26 108,-35c23,-9 61,-28 115,-55l17,14c-10,106 -14,304 -14,594c0,160 2,249 6,268c4,18 18,27 41,27c13,0 38,-3 72,-9l0,38c-95,29 -170,58 -222,89l-17,-13c5,-35 8,-69 10,-103c-57,52 -99,84 -126,97c-27,12 -59,19 -96,19c-70,0 -128,-26 -174,-79c-46,-52 -69,-127 -69,-223c0,-66 12,-123 34,-170c17,-38 42,-73 73,-105c33,-33 68,-59 108,-79c39,-19 79,-29 119,-29c18,0 38,2 61,7c22,4 47,11 73,21c1,-23 2,-37 2,-40c0,-108 -2,-168 -7,-179c-5,-17 -20,-26 -45,-26c-8,0 -23,2 -44,5c-6,1 -14,2 -25,4zm0,0l0,0zm119,533c0,-90 -2,-142 -6,-157c-8,-27 -26,-50 -54,-69c-28,-19 -63,-29 -104,-29c-52,0 -97,22 -133,65c-37,44 -55,107 -55,191c0,86 18,151 55,196c38,45 82,67 133,67c35,0 66,-10 94,-29c29,-20 47,-44 57,-72c9,-27 13,-82 13,-163zm0,0l0,0zm356,29c0,-111 31,-200 94,-264c62,-65 145,-97 247,-97c96,0 173,29 229,87c57,58 85,141 85,245c0,113 -31,202 -95,268c-63,66 -145,99 -246,99c-97,0 -174,-29 -230,-88c-56,-59 -84,-142 -84,-250zm0,0l0,0zm132,-59c0,75 5,130 14,166c15,57 39,100 72,130c33,29 71,43 114,43c56,0 102,-21 138,-64c36,-43 54,-112 54,-206c0,-106 -20,-185 -61,-237c-41,-51 -89,-76 -144,-76c-55,0 -100,19 -135,60c-35,40 -52,102 -52,184z" fill="rgb(155,157,159)"/>
         </g>
        </g>
        <g stroke="null" id="svg_78" class="com.sun.star.drawing.ClosedBezierShape">
         <g stroke="null" id="svg_28">
          <rect id="svg_79" height="2197" width="506" y="9972156.558594" x="65721.558594" fill="none" class="BoundingBox"/>
          <path id="svg_80" d="m66140.558594,9974313.558594c0,-10 4,-19 11,-26c8,-7 17,-11 27,-11c11,0 19,4 27,11c7,8 11,17 11,27c-1,10 -4,19 -12,27c-7,7 -16,10 -26,10c-11,0 -20,-3 -27,-11c-7,-7 -11,-16 -11,-27zm0,0l0,0zm-149,-373l-2,23c-28,1 -49,8 -63,21c-14,13 -21,31 -21,54c0,17 5,33 14,48c9,15 23,27 44,36c21,9 44,13 70,13c42,1 76,-9 100,-29c23,-20 35,-44 35,-71c1,-28 -11,-61 -33,-101l20,-12c26,35 45,65 55,88c5,11 7,25 7,41c0,39 -12,71 -35,95c-30,32 -72,48 -124,48c-54,-1 -98,-18 -132,-52c-35,-34 -52,-75 -52,-125c1,-33 9,-66 27,-97c8,2 17,4 30,7c15,4 36,8 60,13zm0,0l0,0zm61,-59c-55,0 -98,-16 -129,-47c-31,-31 -47,-72 -47,-122c1,-48 15,-85 44,-113c28,-27 68,-41 120,-40c55,0 100,16 132,47c32,31 48,72 47,121c0,48 -15,86 -44,114c-28,27 -69,40 -123,40zm0,0l0,0zm-29,-65c37,0 64,-2 82,-6c29,-9 50,-20 64,-36c15,-16 22,-35 22,-56c0,-28 -10,-50 -31,-68c-21,-18 -55,-27 -102,-27c-52,-1 -90,9 -116,29c-25,20 -37,44 -38,71c0,26 10,48 29,66c20,18 50,27 90,27zm0,0l0,0zm-81,-299l-18,-1c-12,-41 -26,-77 -42,-106l7,-8c17,3 37,5 57,6l-44,-49c-6,-7 -10,-14 -13,-23c-5,-12 -7,-25 -7,-38c0,-25 7,-46 21,-63c9,-11 24,-20 44,-25c-27,-25 -44,-43 -50,-54c-9,-18 -14,-36 -13,-57c0,-17 3,-32 10,-46c8,-13 16,-23 25,-30c10,-6 19,-10 30,-11c10,-2 27,-3 51,-3l93,2c47,0 74,-1 81,-2c5,-2 9,-4 11,-8c3,-3 7,-18 12,-44l19,0c-3,28 -4,52 -4,72c0,17 1,47 3,90l-19,0c-1,-4 -2,-8 -3,-10c-6,-20 -10,-31 -13,-34c-4,-3 -13,-6 -29,-7c-31,-2 -67,-4 -107,-4c-39,0 -64,1 -75,5c-12,3 -22,9 -28,19c-7,9 -11,21 -11,35c0,20 6,37 17,52c12,15 27,25 45,30c10,3 40,5 91,5c59,0 91,-1 97,-5c5,-3 11,-20 16,-49l19,0c-3,29 -4,56 -4,80c-1,25 0,52 2,82l-18,-1l-2,-8c-6,-21 -11,-33 -15,-36c-8,-5 -29,-8 -63,-8l-101,-2c-32,-1 -54,4 -66,15c-13,10 -19,24 -19,43c0,16 5,32 14,47c9,15 22,25 38,33c12,5 33,8 62,8l59,0c44,0 69,-2 74,-5c5,-3 10,-16 16,-40c0,-3 1,-6 3,-11l18,0c-2,27 -3,51 -4,72c0,20 1,50 3,88l-18,0c-6,-26 -10,-41 -14,-44c-5,-4 -22,-6 -50,-6l-9,0l-100,-3c-42,0 -67,1 -73,5c-6,3 -9,9 -9,18c0,6 1,18 3,34zm0,0l0,0zm207,-663c1,-10 4,-19 12,-27c7,-7 16,-10 26,-10c11,0 19,3 27,11c7,7 11,16 11,26c0,11 -4,20 -12,27c-7,7 -16,11 -26,11c-11,0 -20,-4 -27,-11c-7,-8 -11,-17 -11,-27zm0,0l0,0zm-366,-91l-18,-1c-14,-44 -28,-82 -44,-111l7,-9c45,6 111,10 200,10l29,0c-35,-34 -55,-55 -61,-66c-6,-10 -8,-24 -8,-42c0,-21 5,-41 16,-60c10,-18 26,-32 48,-42c21,-10 47,-15 75,-15c56,1 105,20 143,57c38,38 56,83 56,136c0,29 -8,60 -24,93c-76,-4 -177,-6 -300,-7l-69,0l-16,0c-15,0 -26,2 -30,5c-5,3 -8,8 -8,15c0,7 2,19 4,37zm0,0l0,0zm389,-109c12,-21 18,-42 18,-64c1,-30 -10,-55 -32,-74c-22,-19 -56,-29 -101,-29c-40,-1 -69,7 -89,23c-19,15 -29,34 -29,56c-1,14 3,27 10,39c7,12 17,22 29,30c12,9 24,14 35,16c7,1 24,2 53,2l106,1zm0,0l0,0zm-223,-262l-18,0c-10,-42 -24,-78 -42,-107l6,-9c22,4 46,6 72,7c-33,-28 -53,-47 -61,-57c-7,-11 -11,-24 -11,-38c0,-10 3,-21 8,-32c22,5 46,9 70,12l0,18c-11,1 -19,5 -24,9c-4,5 -7,10 -7,16c0,9 4,18 12,29c13,15 27,26 43,33c16,7 38,10 68,10c53,1 88,0 106,-3c6,-1 12,-4 16,-9c3,-5 8,-21 15,-48l18,0c-2,28 -3,54 -4,76c0,19 1,51 3,95l-18,0c-8,-31 -14,-49 -18,-53c-4,-4 -15,-6 -33,-6l-75,-1c-72,-1 -110,0 -116,2c-9,2 -14,8 -14,19c0,5 1,15 3,29c1,2 1,5 1,8z" fill="rgb(155,157,159)"/>
         </g>
        </g>
       </g>
      </g>
     </g>
    </g>
   </g>
  </g>
  <defs>
   <clipPath clipPathUnits="userSpaceOnUse" id="svg_108">
    <rect id="svg_129" height="29700" width="21000" y="251337.312597" x="381134.114882"/>
   </clipPath>
   <clipPath clipPathUnits="userSpaceOnUse" id="svg_127">
    <rect id="svg_130" height="29641" width="20958" y="29" x="21"/>
   </clipPath>
  </defs>
  <defs>
   <g id="svg_131"/>
  </defs>
  <defs>
   <g transform="scale(0.00048828125,-0.00048828125) " id="svg_126">
    <path id="svg_132" d="m580,1141l583,-570l-583,-571l-584,571l584,570z"/>
   </g>
   <g transform="scale(0.00048828125,-0.00048828125) " id="svg_125">
    <path id="svg_133" d="m8,1128l1129,0l0,-1128l-1129,0l0,1128z"/>
   </g>
   <g transform="scale(0.00048828125,-0.00048828125) " id="svg_124">
    <path id="svg_134" d="m174,0l428,739l-428,742l1282,-742l-1282,-739zm1184,739l-1049,607l350,-607l699,0z"/>
   </g>
   <g transform="scale(0.00048828125,-0.00048828125) " id="svg_123">
    <path id="svg_135" d="m2015,739l-739,-739l-559,0l543,543l-1086,0l0,393l1086,0l-543,545l557,0l741,-742z"/>
   </g>
   <g transform="scale(0.00048828125,-0.00048828125) " id="svg_122">
    <path id="svg_136" d="m0,-2c-7,16 -16,29 -25,39l381,530c-94,256 -141,385 -141,387c0,25 13,38 40,38c9,0 21,-2 34,-5c21,4 42,12 65,25l27,-13l111,-251l280,301l64,-25l24,25c21,-10 41,-24 62,-43c-36,-69 -87,-143 -152,-222c-1,-1 -60,-68 -176,-200l180,-361c0,-27 -21,-55 -63,-84l16,-20c-10,-29 -28,-43 -55,-43c-31,0 -102,102 -215,305l-293,-457c-22,-34 -53,-51 -92,-51c-42,0 -63,17 -64,51c-7,9 -10,24 -10,44c0,9 1,19 2,30z"/>
   </g>
   <g transform="scale(0.00048828125,-0.00048828125) " id="svg_121">
    <path id="svg_137" d="m285,-33c-103,0 -174,63 -211,189c-22,72 -33,177 -33,315c0,78 14,145 41,201c34,71 87,106 158,106c53,0 88,-31 106,-94l23,-176c8,-64 28,-97 59,-98l735,706c11,11 33,17 66,17c42,0 63,-15 63,-46l0,-122c0,-36 -10,-64 -30,-84l-820,-834c-52,-53 -104,-80 -157,-80z"/>
   </g>
   <g transform="scale(0.00048828125,-0.00048828125) " id="svg_120">
    <path id="svg_138" d="m813,0c-181,0 -324,54 -430,161c-107,107 -160,250 -160,431c0,181 53,324 160,431c106,107 249,161 430,161c179,0 323,-54 432,-161c108,-107 162,-251 162,-431c0,-180 -54,-324 -162,-431c-109,-107 -253,-161 -432,-161z"/>
   </g>
   <g transform="scale(0.00048828125,-0.00048828125) " id="svg_119">
    <path id="svg_139" d="m346,457c-73,0 -137,26 -191,78c-54,51 -81,114 -81,188c0,73 27,136 81,188c54,52 118,78 191,78c73,0 134,-26 185,-79c51,-51 77,-114 77,-187c0,-75 -25,-137 -76,-188c-50,-52 -112,-78 -186,-78z"/>
   </g>
   <g transform="scale(0.00048828125,-0.00048828125) " id="svg_118">
    <path id="svg_140" d="m-4,459l1139,0l0,147l-1139,0l0,-147z"/>
   </g>
   <g transform="scale(0.00048828125,-0.00048828125) " id="svg_117">
    <path id="svg_141" d="m173,740c0,163 58,303 173,419c116,115 255,173 419,173c163,0 302,-58 418,-173c116,-116 174,-256 174,-419c0,-163 -58,-303 -174,-418c-116,-116 -255,-174 -418,-174c-164,0 -303,58 -419,174c-115,115 -173,255 -173,418z"/>
   </g>
  </defs>

 </g>
</svg>